P3
16 16
255
158 147 212 158 147 212 158 147 212 255 255 255 255 255 255
212 77 96 179 77 128 179 77 128 179 77 128 212 77 96
255 255 255 255 255 255 158 147 212 158 147 212 255 255 255
255 255 255 158 147 212 233 241 255 83 56 69 83 56 69
212 77 96 244 131 102 244 131 102 244 131 102 244 131 102
244 131 102 228 110 126 179 77 128 233 241 255 177 195 236
123 64 85 255 255 255 255 255 255 177 195 236 83 56 69
83 56 69 233 241 255 212 77 96 244 131 102 244 190 153
244 190 153 244 131 102 244 131 102 244 131 102 158 147 212
123 64 85 158 147 212 255 255 255 255 255 255 123 64 85
177 195 236 233 241 255 158 147 212 212 77 96 212 77 96
244 131 102 244 131 102 212 77 96 244 131 102 244 131 102
123 64 85 179 77 128 255 255 255 255 255 255 255 255 255
123 64 85 212 77 96 244 131 102 123 64 85 83 56 69
238 174 185 212 77 96 244 131 102 83 56 69 123 64 85
244 131 102 179 77 128 244 131 102 123 64 85 255 255 255
123 64 85 244 190 153 212 77 96 123 64 85 233 241 255
123 64 85 244 228 220 244 228 220 244 228 220 123 64 85
233 241 255 123 64 85 244 190 153 244 131 102 179 77 128
123 64 85 179 77 128 244 131 102 244 190 153 244 131 102
230 198 195 179 77 128 244 228 220 244 228 220 244 228 220
179 77 128 230 198 195 212 77 96 233 241 255 244 131 102
228 110 126 123 64 85 212 77 96 123 64 85 233 241 255
244 131 102 238 174 185 238 174 185 244 228 220 238 174 185
244 228 220 238 174 185 238 174 185 123 64 85 158 147 212
244 131 102 212 77 96 123 64 85 123 64 85 255 255 255
158 147 212 212 77 96 83 56 69 83 56 69 123 64 85
123 64 85 123 64 85 83 56 69 83 56 69 255 255 255
255 255 255 179 77 128 123 64 85 255 255 255 255 255 255
255 255 255 255 255 255 255 255 255 123 64 85 182 112 144
238 174 185 244 228 220 244 228 220 238 174 185 182 112 144
123 64 85 255 255 255 123 64 85 255 255 255 255 255 255
255 255 255 255 255 255 255 255 255 182 112 144 238 174 185
177 195 236 153 225 182 153 225 182 177 195 236 177 195 236
123 64 85 238 174 185 123 64 85 228 110 126 179 77 128
123 64 85 255 255 255 255 255 255 123 64 85 238 174 185
123 64 85 244 228 220 244 228 220 244 228 220 244 228 220
238 174 185 212 77 96 123 64 85 179 77 128 244 131 102
244 131 102 179 77 128 255 255 255 255 255 255 123 64 85
182 112 144 177 195 236 233 241 255 177 195 236 233 241 255
158 147 212 238 174 185 244 131 102 179 77 128 212 77 96
244 131 102 179 77 128 123 64 85 255 255 255 255 255 255
255 255 255 179 77 128 244 131 102 212 77 96 212 77 96
244 131 102 212 77 96 212 77 96 244 190 153 244 131 102
212 77 96 228 110 126 244 131 102 212 77 96 255 255 255
255 255 255 255 255 255 123 64 85 244 131 102 244 131 102
212 77 96 244 131 102 244 190 153 212 77 96 244 131 102
228 110 126 212 77 96 179 77 128 123 64 85 255 255 255
255 255 255 255 255 255 255 255 255 255 255 255 123 64 85
179 77 128 228 110 126 228 110 126 228 110 126 228 110 126
212 77 96 179 77 128 123 64 85 255 255 255 255 255 255
255 255 255 